<?xml version="1.0"?>
<svg xmlns="http://www.w3.org/2000/svg" id="Line" width="512" height="512" viewBox="0 0 64 64"><path d="M50,31.051A13,13,0,0,1,61.949,43H50ZM48,43V31.051A13,13,0,0,0,36.051,43ZM36,45v5a13,13,0,0,0,26,0V45ZM47.479,29.077A14.98,14.98,0,0,1,49,29c.5,0,.992.027,1.478.075A10.993,10.993,0,0,0,28.5,29.5V57a3,3,0,0,1-6,0V41a1.5,1.5,0,0,0-3,0V57a6,6,0,0,0,12,0V29.5a7.995,7.995,0,0,1,15.979-.423Z" style="fill:#c4a2fc"/><path d="M49,1H5A3,3,0,0,0,2,4V42a3,3,0,0,0,3,3H49a3,3,0,0,0,3-3V4A3,3,0,0,0,49,1ZM5,3H49a1,1,0,0,1,1,1V7H4V4A1,1,0,0,1,5,3ZM49,43H5a1,1,0,0,1-1-1V9H50V42A1,1,0,0,1,49,43ZM40.05,20.143,28.856,15.665a4.984,4.984,0,0,0-3.712,0L13.949,20.144a2,2,0,0,0,0,3.713L17,25.077V34a1,1,0,0,0,.445.832,17.181,17.181,0,0,0,19.11,0A1,1,0,0,0,37,34V25.077l3.051-1.221A2,2,0,0,0,40.05,20.143ZM35,33.454a15.179,15.179,0,0,1-16,0V25.877l6.144,2.458a4.988,4.988,0,0,0,3.712,0L29,28.278V32a1,1,0,0,0,2,0V27.477l4-1.6Zm-4.595-7.893L27.848,21.47a1,1,0,1,0-1.7,1.06l2.366,3.786-.4.162a2.99,2.99,0,0,1-2.228,0l-7.5-3h0L14.692,22l11.194-4.478a2.99,2.99,0,0,1,2.228,0L39.308,22Z" style="fill:#151a6a"/></svg>
