<?xml version="1.0"?>
<svg xmlns="http://www.w3.org/2000/svg" height="512px" viewBox="0 0 490.66667 490.66667" width="512px" class=""><g><path d="m490.667969 245.332031c0 135.496094-109.839844 245.335938-245.335938 245.335938-135.492187 0-245.332031-109.839844-245.332031-245.335938 0-135.492187 109.839844-245.332031 245.332031-245.332031 135.496094 0 245.335938 109.839844 245.335938 245.332031zm0 0" fill="#009688" data-original="#009688" class="active-path" style="fill:#FFFFFF" data-old_color="#009688"/><path d="m245.332031 490.667969c-135.273437 0-245.332031-110.058594-245.332031-245.335938 0-135.273437 110.058594-245.332031 245.332031-245.332031 135.277344 0 245.335938 110.058594 245.335938 245.332031 0 135.277344-110.058594 245.335938-245.335938 245.335938zm0-469.335938c-123.519531 0-224 100.480469-224 224s100.480469 224 224 224 224-100.480469 224-224-100.480469-224-224-224zm0 0" data-original="#000000" class=""/><path d="m202.667969 341.332031c-5.890625 0-10.667969-4.777343-10.667969-10.664062v-170.667969c0-5.886719 4.777344-10.667969 10.667969-10.667969h64c29.394531 0 53.332031 23.914063 53.332031 53.335938v21.332031c0 29.417969-23.9375 53.332031-53.332031 53.332031h-53.335938v53.335938c0 5.886719-4.777343 10.664062-10.664062 10.664062zm10.664062-85.332031h53.335938c17.640625 0 32-14.355469 32-32v-21.332031c0-17.644531-14.359375-32-32-32h-53.335938zm0 0" data-original="#000000" class=""/></g> </svg>
