<svg height="512" viewBox="0 0 58 58" width="512" xmlns="http://www.w3.org/2000/svg"><g id="Page-1" fill="none" fill-rule="evenodd"><g id="047---Any-Solvent-Except-Tetrachlorethylene" fill="rgb(0,0,0)" fill-rule="nonzero"><path id="Shape" d="m29 0c-16.0162577 0-29 12.9837423-29 29s12.9837423 29 29 29 29-12.9837423 29-29-12.9837423-29-29-29zm0 55c-14.3594035 0-26-11.6405965-26-26s11.6405965-26 26-26 26 11.6405965 26 26c-.0159821 14.3527783-11.6472217 25.9840179-26 26z"/><path id="Shape" d="m29 5c-13.254834 0-24 10.745166-24 24s10.745166 24 24 24 24-10.745166 24-24c-.0154295-13.2484376-10.7515624-23.98457048-24-24zm1 28h-6v9c0 1.6568542-1.3431458 2.9999999-3 2.9999999s-3-1.3431457-3-2.9999999v-26c0-1.6568542 1.3431458-3 3-3h9c5.5228475 0 10 4.4771525 10 10s-4.4771525 10-10 10z"/><path id="Shape" d="m30 19h-6v8h6c2.209139 0 4-1.790861 4-4s-1.790861-4-4-4z"/></g></g></svg>